 <svg  version="1.0" xmlns="http://www.w3.org/2000/svg"  width="900.000000pt" height="714.000000pt" viewBox="0 0 900.000000 714.000000"  preserveAspectRatio="xMidYMid meet">  <g transform="translate(0.000000,714.000000) scale(0.100000,-0.100000)" fill="#4a1f7f" stroke="none"> <path d="M5050 7126 c0 -16 -14 -21 -82 -31 -26 -3 -50 -10 -53 -14 -2 -5 -25 -12 -50 -15 -24 -4 -47 -11 -50 -15 -2 -5 -21 -12 -41 -16 -20 -3 -44 -10 -53 -15 -9 -5 -38 -19 -66 -30 -84 -35 -189 -91 -230 -122 -5 -4 -55 -41 -110 -82 -99 -73 -284 -254 -361 -351 -21 -27 -41 -52 -44 -55 -3 -3 -29 -36 -59 -75 -29 -38 -71 -87 -94 -107 l-42 -38 1977 0 c1878 0 2075 -2 2133 -27 44 -18 134 -90 146 -117 5 -12 20 -41 34 -64 l24 -44 7 -654 c7 -595 6 -654 -9 -660 -10 -3 -27 4 -44 20 -15 14 -31 26 -36 26 -6 0 -352 254 -394 290 -7 5 -15 10 -18 10 -3 0 -15 9 -27 20 -42 38 -65 19 -75 -60 -6 -50 6 -139 43 -315 8 -38 14 -79 14 -90 0 -11 6 -51 14 -90 8 -38 22 -115 31 -170 9 -55 23 -131 31 -170 8 -38 14 -85 14 -102 0 -40 19 -43 70 -11 66 42 75 47 97 57 11 5 24 15 28 20 16 27 51 6 75 -44 6 -11 19 -33 30 -50 11 -16 23 -37 27 -45 8 -17 77 -123 107 -165 21 -30 21 -33 24 -690 2 -524 0 -664 -10 -678 -12 -16 -175 -17 -2877 -17 -2297 0 -2866 2 -2873 12 -11 18 -9 30 7 52 8 11 15 34 15 50 0 17 7 40 15 50 8 11 15 34 15 50 0 17 7 40 15 50 8 11 15 34 15 50 1 17 7 42 15 56 8 14 15 39 15 55 0 17 7 39 15 49 22 29 20 86 -2 86 -10 0 -27 7 -37 15 -11 8 -36 15 -55 15 -20 0 -45 7 -55 15 -11 8 -34 15 -50 15 -17 1 -42 7 -56 15 -14 8 -38 15 -55 15 -16 0 -41 7 -55 15 -41 23 -68 19 -85 -15 -8 -16 -15 -42 -15 -58 0 -15 -4 -32 -10 -38 -5 -5 -14 -30 -19 -54 -5 -25 -14 -60 -20 -77 -6 -18 -16 -48 -22 -65 -6 -18 -15 -51 -19 -73 -7 -38 -12 -55 -40 -135 -7 -19 -15 -51 -19 -70 -3 -19 -13 -45 -22 -58 -16 -22 -18 -23 -276 -23 -178 -1 -267 2 -282 10 -17 10 -21 21 -21 62 0 27 -7 66 -15 86 -8 19 -15 61 -15 92 0 31 -7 69 -15 85 -8 15 -15 52 -15 81 0 29 -7 72 -15 95 -8 23 -15 63 -15 89 0 29 -7 57 -20 76 -17 27 -26 31 -82 35 l-63 5 -5 1377 c-3 757 -8 1380 -12 1384 -5 4 -8 -67 -8 -157 0 -186 -2 -191 -80 -230 -136 -69 -300 -223 -407 -381 -51 -77 -163 -292 -163 -315 0 -6 -7 -24 -15 -39 -8 -16 -15 -36 -15 -45 0 -8 -4 -19 -9 -25 -5 -5 -14 -31 -21 -59 -6 -27 -18 -77 -27 -110 -19 -75 -40 -194 -54 -305 -14 -104 -6 -635 10 -700 6 -25 15 -79 21 -120 12 -91 34 -204 55 -285 9 -33 22 -85 30 -115 19 -79 35 -132 45 -155 4 -11 18 -54 31 -95 13 -41 26 -79 31 -84 4 -6 8 -17 8 -25 1 -9 9 -34 20 -56 11 -22 19 -45 20 -52 0 -6 11 -33 24 -60 13 -26 49 -100 80 -163 110 -224 194 -363 339 -560 48 -65 87 -122 87 -127 0 -5 14 -20 30 -35 l30 -26 0 -575 0 -574 23 -26 c12 -15 28 -27 36 -27 7 0 19 -7 27 -15 17 -16 74 -21 74 -6 0 11 -25 21 -53 21 -31 1 -80 43 -75 66 2 15 13 20 47 22 67 5 121 60 121 124 0 57 -69 118 -134 118 l-36 0 2 272 3 273 35 0 c19 0 51 10 71 23 78 48 91 114 36 177 -31 35 -37 38 -88 39 l-54 1 0 44 0 43 580 -1 c319 -1 583 -6 588 -10 4 -4 4 -22 1 -39 -6 -29 -10 -32 -45 -32 -31 0 -47 -8 -77 -34 -35 -32 -37 -38 -36 -92 0 -54 2 -59 39 -91 23 -20 49 -33 66 -33 56 0 54 10 51 -263 -1 -138 -5 -258 -7 -264 -2 -7 -21 -13 -40 -13 -28 0 -45 -8 -73 -35 -34 -32 -37 -39 -36 -90 0 -73 34 -112 106 -121 90 -12 38 -22 -124 -23 -89 -1 -178 -6 -198 -11 -19 -5 -69 -12 -110 -16 -41 -3 -79 -9 -83 -11 -5 -3 0 -14 10 -25 17 -19 22 -84 12 -142 -5 -26 24 -34 136 -35 58 -1 96 -6 103 -13 18 -18 1029 -25 1117 -8 33 6 105 14 160 16 56 3 113 12 129 20 16 8 47 14 70 14 34 0 46 6 71 35 l31 35 1112 0 1113 1 42 -34 c95 -77 22 -71 750 -62 359 5 969 9 1356 10 l705 1 9 28 c12 36 -3 51 -47 48 -46 -3 -128 40 -165 87 -17 21 -31 42 -31 47 0 4 -8 16 -17 26 -13 15 -17 39 -17 118 0 79 4 103 17 118 9 10 17 23 17 28 0 15 63 79 95 97 17 9 55 23 85 31 51 12 55 15 55 42 l0 29 -120 3 c-146 3 -150 4 -131 34 33 53 30 166 -5 196 -35 30 -23 55 44 99 131 86 314 304 376 448 21 47 45 100 61 135 4 8 17 49 29 90 12 41 26 86 31 100 13 36 33 142 61 330 18 112 18 586 1 695 -6 44 -16 118 -22 165 -13 114 -36 258 -55 355 -39 191 -41 202 -89 393 -8 31 -20 80 -27 107 -6 28 -15 54 -20 59 -5 6 -9 18 -9 27 0 16 -62 215 -79 254 -5 11 -26 67 -47 125 -20 58 -40 110 -44 115 -4 6 -15 33 -25 60 -49 137 -304 661 -334 685 -3 3 -21 34 -39 70 l-32 65 0 233 c0 241 0 240 -41 312 -5 8 -13 24 -19 35 -20 42 -113 125 -141 125 -8 0 -23 7 -33 15 -15 12 -53 15 -163 15 l-142 0 -48 43 c-27 23 -71 65 -98 92 -108 108 -221 209 -330 295 -38 30 -72 57 -75 60 -32 33 -330 210 -456 269 -60 29 -117 57 -126 62 -10 5 -23 9 -30 9 -7 0 -24 6 -38 13 -14 7 -59 24 -100 36 -41 13 -83 27 -92 32 -10 5 -43 12 -74 15 -43 5 -58 11 -62 26 -4 17 -26 18 -473 18 -400 0 -469 -2 -469 -14z m2488 -2233 c11 -10 30 -25 42 -33 12 -8 28 -20 34 -25 6 -6 28 -21 48 -35 21 -14 38 -28 38 -32 0 -5 4 -8 9 -8 5 0 66 -42 134 -92 69 -51 135 -100 147 -108 12 -8 28 -20 34 -25 6 -6 29 -22 51 -37 22 -14 55 -39 74 -55 l35 -30 -92 -54 c-70 -41 -92 -59 -92 -76 0 -18 56 -120 123 -221 9 -15 20 -35 23 -44 4 -10 10 -18 15 -18 5 0 9 -6 9 -13 0 -8 9 -24 20 -37 24 -27 37 -73 24 -77 -6 -2 -33 -19 -61 -37 -59 -39 -57 -40 -109 47 -16 27 -36 59 -44 72 -8 12 -39 63 -69 111 -30 49 -61 97 -69 107 -16 18 -52 24 -52 8 0 -5 -10 -13 -22 -17 -13 -4 -25 -10 -28 -13 -6 -8 -108 -71 -115 -71 -3 0 -5 11 -5 25 0 13 -4 34 -10 47 -5 13 -14 55 -19 93 -17 130 -33 220 -47 276 -8 30 -14 71 -14 91 0 19 -4 48 -10 64 -5 16 -14 63 -20 104 -5 41 -12 87 -16 103 -7 31 4 35 34 10z m-6496 -1885 c11 -9 18 -33 20 -73 l3 -60 -30 -3 c-16 -1 -40 -7 -51 -13 -40 -20 -59 -8 -62 41 -2 24 -8 50 -14 57 -8 10 -6 19 7 33 15 17 33 22 96 28 8 1 22 -4 31 -10z m992 -37 c3 -4 28 -11 55 -15 28 -4 53 -10 55 -15 3 -5 28 -11 55 -15 28 -4 53 -10 55 -15 3 -5 28 -11 55 -15 62 -8 78 -26 64 -69 -6 -18 -14 -51 -18 -74 -4 -24 -10 -45 -15 -48 -5 -3 -11 -24 -15 -48 -4 -23 -11 -46 -15 -52 -4 -5 -11 -27 -14 -49 -4 -21 -11 -46 -16 -55 -8 -15 -18 -49 -41 -146 -5 -22 -13 -49 -18 -60 -9 -21 -25 -80 -43 -155 -5 -25 -14 -49 -19 -55 -5 -5 -9 -20 -9 -33 0 -13 -6 -38 -14 -55 -13 -32 -28 -84 -48 -167 -6 -25 -14 -49 -18 -55 -4 -5 -11 -29 -15 -52 -6 -39 -10 -43 -43 -49 -49 -9 -334 4 -346 16 -6 6 -18 10 -28 10 -20 0 -23 12 -9 38 5 9 12 25 15 35 5 15 12 17 38 12 18 -4 37 -11 42 -16 6 -5 29 -9 53 -9 55 0 60 26 8 36 -19 3 -38 10 -41 15 -3 5 -17 9 -32 9 -44 0 -52 11 -42 54 4 20 10 40 13 42 6 7 110 -17 121 -27 18 -17 46 -10 46 11 0 23 -21 35 -77 45 -55 9 -78 34 -66 72 10 30 44 43 66 25 7 -6 35 -12 62 -14 39 -2 50 0 53 14 2 12 -7 18 -37 23 -23 4 -43 11 -47 16 -3 5 -18 9 -34 9 -39 0 -44 12 -23 54 19 41 31 43 98 20 49 -16 92 -16 87 1 -5 15 -61 42 -107 52 -39 8 -40 9 -38 48 3 49 15 62 45 48 32 -15 128 -36 135 -30 2 3 2 14 -2 25 -4 14 -18 22 -48 27 -23 4 -55 14 -70 22 -25 12 -28 18 -21 46 3 18 9 36 11 40 5 9 62 0 78 -13 21 -16 73 -19 85 -5 8 10 8 15 -2 22 -22 13 -82 33 -103 33 -30 0 -42 16 -37 50 3 22 11 32 28 36 28 7 89 -3 114 -18 10 -6 25 -8 35 -4 17 6 16 8 -5 31 -13 14 -34 25 -48 25 -55 0 -113 46 -82 65 6 3 10 14 10 25 0 24 23 32 46 15 11 -7 43 -16 72 -20 48 -6 52 -5 52 14 0 14 -6 21 -18 21 -10 0 -42 9 -72 19 -50 18 -55 22 -52 48 5 53 9 56 54 49 23 -4 47 -11 53 -16 5 -5 24 -10 40 -12 21 -2 30 2 33 14 4 19 -37 40 -100 52 -20 3 -39 14 -42 22 -5 14 1 58 11 77 6 10 41 9 47 -2z m-950 -137 c11 -4 16 -19 16 -53 0 -25 7 -59 15 -75 37 -71 2 -109 -98 -104 l-62 3 -7 65 c-3 36 -11 78 -17 93 -13 33 -7 47 17 48 9 0 33 6 52 13 41 16 62 18 84 10z m-401 -276 l87 -93 -34 -30 c-18 -17 -50 -36 -70 -43 -46 -17 -61 -7 -75 51 -21 86 -34 133 -44 155 -9 18 -7 25 9 37 10 8 24 15 29 15 6 0 49 -42 98 -92z m442 -5 c3 -16 10 -44 15 -63 6 -19 14 -64 20 -100 16 -108 30 -192 40 -240 6 -25 15 -74 20 -110 5 -36 16 -101 24 -145 8 -44 19 -109 26 -144 6 -38 7 -68 2 -73 -5 -5 -37 -8 -72 -6 l-62 3 -14 41 c-8 23 -18 75 -24 115 -5 41 -16 110 -24 154 -8 44 -19 112 -26 150 -6 39 -15 88 -20 111 -5 23 -12 72 -16 110 -4 38 -11 74 -15 80 -16 20 -23 103 -9 119 7 8 15 13 19 11 5 -3 30 0 103 13 4 0 10 -11 13 -26z m-157 -125 c15 -15 16 -74 2 -83 -31 -19 -55 74 -42 155 l6 35 10 -47 c6 -26 17 -53 24 -60z m7041 -545 c-50 -102 -136 -170 -249 -196 -70 -16 -268 -17 -2870 -13 -1537 2 -2796 4 -2797 5 -11 5 0 50 13 55 9 3 1276 6 2816 6 2567 0 2805 1 2856 16 68 20 122 53 160 96 15 17 35 40 45 50 9 10 17 24 17 31 0 22 13 29 23 12 6 -11 1 -31 -14 -62z m-6948 -48 c4 -16 7 -50 8 -75 0 -26 6 -51 13 -58 14 -14 11 -18 -24 -27 -25 -6 -31 -2 -68 57 -48 76 -50 96 -10 109 17 6 30 15 30 21 0 5 10 8 22 6 16 -2 25 -12 29 -33z m514 -125 c0 -25 -1 -25 -105 -30 -58 -3 -115 -4 -128 -2 -26 4 -37 24 -28 47 5 13 26 15 133 13 l128 -3 0 -25z m3980 -85 c22 -9 85 -38 140 -65 55 -26 145 -69 199 -95 71 -34 95 -49 85 -56 -8 -5 -148 -9 -311 -9 -274 0 -297 1 -302 18 -11 34 2 215 16 224 18 13 125 2 173 -17z m-3304 -11 c25 -22 24 -39 -3 -58 -20 -14 -97 -16 -641 -16 -407 0 -625 4 -638 10 -33 18 -22 74 15 81 11 2 296 3 634 2 562 -2 616 -4 633 -19z m4179 -254 c234 -5 641 -12 905 -16 479 -7 479 -7 502 -30 39 -39 42 -112 7 -159 -15 -20 -28 -20 -749 -23 -429 -1 -735 1 -735 7 0 5 6 14 14 20 36 30 27 136 -15 172 -21 18 -46 19 -607 16 -461 -1 -586 1 -589 11 -6 15 618 16 1267 2z m-79 -71 c12 -23 7 -105 -8 -120 -4 -4 -233 -10 -508 -11 l-500 -3 -6 60 c-3 33 -7 65 -8 70 -2 6 -3 13 -2 18 0 4 230 7 511 7 l509 0 12 -21z m-2755 -141 c20 -32 4 -282 -23 -358 -30 -86 -61 -143 -123 -227 -50 -69 -84 -93 -128 -93 -22 0 -38 -10 -61 -35 -17 -20 -31 -40 -31 -45 0 -6 -7 -10 -15 -10 -8 0 -15 5 -15 10 0 6 -8 14 -17 17 -10 4 -24 13 -31 20 -7 7 -32 13 -56 13 -23 0 -47 5 -54 12 -8 8 -64 13 -165 16 -133 3 -160 1 -216 -17 -35 -12 -77 -21 -92 -21 -24 0 -29 -4 -29 -25 0 -20 5 -25 27 -25 15 0 46 9 69 20 67 33 373 56 389 30 3 -5 32 -12 65 -16 48 -5 64 -12 90 -39 18 -18 29 -38 26 -44 -8 -13 -142 -15 -150 -2 -9 14 -145 21 -489 23 -221 1 -331 6 -337 13 -15 18 -16 483 -1 498 8 8 51 12 124 13 126 1 349 19 417 34 25 5 68 14 95 19 28 5 77 16 110 24 33 9 83 20 110 27 28 6 57 15 65 19 9 5 31 12 50 16 19 4 40 11 45 15 6 4 25 11 43 15 18 4 45 13 60 21 15 8 34 14 43 14 9 0 19 3 22 6 6 7 155 70 169 73 4 0 10 -4 14 -11z m1944 -103 c5 -29 6 -30 70 -33 91 -3 110 -15 110 -68 0 -24 -5 -46 -10 -49 -6 -4 -35 -9 -65 -12 -60 -6 -78 -20 -73 -55 3 -22 8 -23 91 -26 68 -2 87 -6 87 -17 0 -8 -4 -15 -9 -15 -27 0 -111 -121 -111 -161 0 -9 -7 -30 -15 -45 -8 -16 -15 -37 -15 -46 0 -36 -21 -26 -65 29 -51 65 -103 151 -123 203 -24 63 -51 194 -52 247 0 73 14 85 104 81 70 -3 71 -3 76 -33z m2700 0 c14 -37 1 -82 -28 -101 -27 -18 -71 -25 -277 -44 -66 -6 -149 -15 -185 -21 -37 -7 -263 -13 -522 -16 -448 -5 -491 -2 -442 25 26 15 24 107 -3 132 -21 19 -39 19 -612 20 -503 1 -591 4 -591 16 0 12 188 14 1325 14 l1325 0 10 -25z m-1482 -47 c18 -18 14 -73 -6 -91 -15 -14 -77 -17 -499 -23 -355 -5 -486 -4 -496 4 -8 7 -12 24 -9 41 2 16 -1 38 -7 49 -6 10 -7 22 -4 26 3 3 232 6 508 6 376 0 504 -3 513 -12z m-1058 -154 c0 -2 -18 -4 -40 -4 -22 0 -40 3 -40 8 0 4 18 6 40 4 22 -2 40 -6 40 -8z m1190 -53 c232 -7 215 -10 -91 -16 -131 -2 -161 -6 -185 -21 -41 -26 -108 -94 -127 -129 -24 -45 -48 -153 -38 -173 4 -9 12 -34 15 -56 16 -89 129 -206 198 -206 10 0 26 -5 36 -10 9 -6 87 -14 172 -18 126 -6 46 -9 -432 -15 l-588 -8 -45 22 c-44 22 -105 79 -105 98 0 5 -6 16 -13 23 -7 7 -22 38 -32 68 -20 61 -24 195 -6 213 6 6 11 20 11 32 0 21 59 118 89 146 10 10 36 26 57 38 38 19 54 20 444 19 223 0 511 -4 640 -7z m1465 -42 c6 -17 -1 -29 -31 -55 -21 -19 -44 -34 -52 -34 -11 0 -13 -8 -8 -30 4 -21 0 -36 -11 -50 -17 -19 -31 -20 -550 -20 -349 0 -533 -3 -533 -10 0 -6 68 -10 183 -10 100 0 341 -3 535 -7 l352 -6 0 -72 c0 -52 4 -76 15 -85 8 -7 15 -19 15 -27 0 -8 16 -35 35 -60 19 -25 35 -51 35 -58 0 -9 -192 -13 -805 -19 -710 -6 -809 -5 -835 9 -16 8 -36 15 -44 15 -9 0 -33 12 -54 27 -92 65 -133 175 -108 284 17 72 56 127 120 171 l49 33 711 7 c696 7 954 12 968 16 4 1 10 -8 13 -19z m-5997 -522 c2 -60 -1 -94 -10 -104 -10 -12 -46 -14 -239 -10 -136 3 -235 9 -247 16 -11 6 -57 11 -102 11 l-81 0 1 48 c1 26 0 58 -2 72 -3 25 -1 25 82 32 47 4 110 11 140 16 30 5 145 9 255 8 l200 -1 3 -88z m714 76 c7 -8 39 -13 77 -14 37 0 91 -5 121 -10 30 -5 70 -12 88 -16 36 -6 54 -29 45 -61 -5 -21 -15 -24 -138 -52 -22 -5 -72 -9 -112 -10 -39 0 -84 -5 -100 -11 -37 -15 -648 -25 -657 -11 -3 5 1 30 8 56 12 39 12 53 1 90 -8 24 -10 47 -7 51 4 4 154 5 334 3 245 -2 330 -6 340 -15z m2562 -16 c10 -7 16 -22 14 -33 -3 -19 -25 -19 -1096 -22 -1029 -2 -1095 -1 -1117 15 -27 20 -32 39 -12 46 6 3 503 6 1103 6 886 1 1094 -1 1108 -12z"/> <path d="M7018 674 c-5 -4 -8 -11 -8 -16 0 -10 732 -9 785 1 25 6 -88 9 -291 10 -182 0 -364 4 -405 7 -41 3 -77 3 -81 -2z"/> <path d="M1140 6155 c-7 -8 -21 -15 -31 -15 -24 0 -159 -134 -159 -159 0 -10 -7 -24 -15 -31 -10 -8 -15 -30 -15 -62 0 -62 17 -54 26 12 4 27 13 55 20 61 8 6 14 17 14 25 0 20 109 124 130 124 11 0 23 6 27 14 12 21 87 28 358 35 l250 7 -296 2 c-253 2 -298 0 -309 -13z"/> <path d="M2493 6163 c224 -2 590 -2 815 0 224 1 40 2 -408 2 -448 0 -632 -1 -407 -2z"/> <path d="M1870 5120 c-52 -13 -109 -35 -122 -48 -7 -7 -17 -12 -24 -12 -16 0 -160 -135 -176 -165 -24 -45 -56 -110 -73 -153 -24 -58 -25 -225 -2 -272 10 -18 17 -38 17 -43 0 -5 20 -35 45 -65 50 -60 53 -70 28 -78 -216 -72 -388 -311 -408 -564 -23 -299 151 -490 448 -490 248 0 512 146 652 360 48 74 58 120 26 120 -10 0 -50 -31 -89 -70 -38 -38 -80 -74 -93 -80 -13 -5 -31 -14 -39 -18 -47 -26 -84 -42 -98 -42 -9 0 -35 -7 -57 -15 -86 -31 -198 -11 -258 44 -47 44 -67 102 -67 200 0 144 63 292 174 409 67 70 167 142 199 142 34 0 25 20 -22 48 -49 31 -111 89 -111 106 0 5 -6 17 -13 25 -18 21 -47 128 -47 172 0 47 25 144 52 199 12 25 44 66 70 92 52 51 103 67 173 54 52 -10 95 -67 95 -126 0 -58 -28 -137 -65 -185 -21 -29 -26 -42 -18 -54 18 -29 56 -42 107 -37 58 6 96 37 132 108 20 40 24 62 24 143 0 110 -15 150 -80 215 -61 61 -118 81 -240 85 -58 2 -121 0 -140 -5z"/> <path d="M4705 5124 c-126 -20 -322 -123 -433 -227 -52 -50 -131 -146 -145 -177 -4 -8 -11 -22 -16 -30 -34 -56 -46 -109 -46 -200 0 -105 13 -136 76 -181 24 -17 116 -47 150 -49 16 -1 18 36 4 76 -20 58 -19 120 3 224 25 117 65 192 142 271 64 64 80 76 169 118 53 25 64 20 47 -22 -8 -18 -22 -52 -31 -77 -9 -25 -23 -60 -31 -78 -8 -18 -14 -41 -14 -50 0 -10 -6 -26 -14 -37 -7 -11 -16 -31 -19 -45 -3 -14 -15 -50 -27 -80 -12 -30 -25 -66 -30 -80 -5 -14 -18 -50 -30 -80 -12 -30 -25 -66 -30 -80 -5 -14 -18 -50 -30 -80 -12 -30 -24 -66 -27 -80 -3 -14 -10 -30 -15 -37 -6 -7 -14 -27 -18 -45 -5 -18 -18 -58 -30 -88 -12 -30 -25 -66 -30 -80 -5 -14 -18 -50 -30 -80 -12 -30 -25 -66 -30 -80 -5 -14 -18 -50 -30 -80 -12 -30 -24 -66 -27 -80 -3 -14 -10 -30 -15 -37 -6 -7 -14 -27 -18 -45 -5 -18 -18 -58 -30 -88 -31 -79 -40 -112 -34 -121 3 -5 43 -9 89 -9 l84 0 17 32 c9 17 20 43 24 57 5 14 18 51 30 81 42 111 52 136 60 165 4 17 18 55 30 85 28 74 49 130 60 160 5 14 18 50 30 80 12 30 25 66 30 80 5 14 18 50 30 80 12 30 26 69 30 85 30 103 50 140 63 118 6 -10 -10 -517 -20 -648 -4 -55 -8 -161 -8 -235 l0 -135 157 -3 156 -2 21 29 c12 16 21 33 21 38 0 7 44 114 106 261 8 17 20 47 27 65 8 17 21 48 29 67 9 19 30 71 48 115 18 44 39 95 46 112 15 34 21 51 73 172 17 40 31 79 31 86 0 7 6 18 14 24 7 6 16 26 20 43 5 25 9 29 18 20 9 -9 8 -31 -5 -95 -9 -45 -17 -100 -17 -122 0 -22 -7 -67 -15 -100 -8 -33 -14 -78 -15 -100 0 -22 -6 -76 -15 -120 -8 -44 -21 -134 -30 -200 -9 -66 -21 -152 -27 -192 -6 -39 -8 -79 -5 -88 6 -13 29 -15 174 -13 l167 3 12 70 c7 39 18 114 23 168 6 54 13 103 17 108 3 6 9 47 14 92 4 45 13 116 20 157 6 41 18 118 25 170 8 52 19 129 25 170 6 41 15 113 21 159 5 47 14 101 19 120 5 20 10 56 10 81 0 25 7 72 15 105 8 33 14 79 15 103 0 24 6 73 14 110 18 82 25 167 16 182 -7 12 -302 16 -332 5 -10 -4 -20 -17 -23 -28 -4 -12 -13 -37 -21 -54 -24 -57 -40 -95 -89 -213 -26 -63 -53 -130 -61 -147 -36 -84 -44 -103 -74 -178 -30 -75 -38 -94 -74 -177 -8 -18 -35 -85 -61 -148 -26 -63 -53 -128 -60 -145 -15 -34 -40 -100 -49 -129 -5 -13 -10 -16 -17 -9 -6 6 -9 66 -6 159 6 250 27 730 39 890 11 158 8 188 -20 199 -21 8 -245 15 -287 9z"/> <path d="M6595 5124 c-106 -16 -259 -101 -323 -180 -73 -90 -104 -216 -83 -338 20 -122 84 -225 282 -456 92 -108 156 -198 185 -260 88 -189 39 -375 -119 -461 -35 -19 -58 -23 -132 -24 -84 0 -93 2 -135 30 -90 61 -126 194 -80 296 41 91 93 127 223 154 38 8 35 41 -6 85 -54 58 -88 72 -175 72 -112 -1 -189 -39 -256 -130 -58 -79 -77 -141 -77 -249 0 -219 113 -350 359 -415 117 -30 298 -16 432 34 133 50 278 179 329 293 28 63 51 162 51 220 0 58 -28 183 -49 221 -5 11 -12 26 -15 34 -14 37 -120 181 -182 249 -99 107 -116 128 -184 216 -38 50 -78 114 -89 143 -43 109 -19 225 62 297 54 49 97 61 183 50 47 -6 58 -12 89 -47 34 -40 35 -45 35 -120 0 -81 -8 -106 -59 -177 -29 -40 -22 -57 34 -84 64 -31 94 -31 155 0 45 23 59 37 82 82 24 45 28 65 27 130 0 48 -7 92 -18 119 -20 50 -93 139 -125 153 -11 5 -28 13 -36 18 -61 35 -100 44 -225 46 -71 2 -143 1 -160 -1z"/> <path d="M3705 5101 c-136 -24 -179 -38 -310 -102 -128 -62 -303 -211 -349 -296 -58 -110 -59 -114 -60 -228 -1 -106 0 -111 28 -147 39 -51 81 -75 147 -83 69 -8 75 -1 54 60 -30 89 -8 246 50 370 29 61 142 186 186 205 13 5 31 15 40 22 9 6 24 8 32 5 18 -7 17 -22 -8 -127 -7 -30 -21 -91 -30 -135 -9 -44 -22 -107 -30 -140 -7 -33 -20 -96 -30 -140 -9 -44 -22 -107 -30 -140 -7 -33 -20 -96 -30 -140 -9 -44 -22 -107 -30 -140 -7 -33 -20 -96 -30 -140 -9 -44 -22 -107 -30 -140 -7 -33 -20 -96 -30 -140 -9 -44 -23 -107 -31 -140 -8 -33 -15 -80 -16 -105 l-3 -45 80 -6 c90 -8 150 -25 236 -69 71 -36 204 -126 274 -184 79 -67 245 -189 300 -222 78 -45 115 -61 178 -74 149 -30 250 61 302 272 24 100 19 107 -63 84 -77 -21 -181 -20 -267 4 -99 27 -124 37 -265 109 -285 145 -340 171 -359 171 -22 0 -51 25 -51 44 0 7 7 35 15 62 8 27 15 60 15 73 0 13 6 47 14 75 8 28 22 87 31 131 9 44 21 100 27 125 6 25 14 65 18 90 4 25 12 65 18 90 6 25 19 81 28 125 9 44 22 107 29 140 23 106 43 198 60 280 9 44 23 107 30 140 7 33 20 96 30 140 9 44 23 106 31 137 16 64 18 124 6 132 -23 14 -118 13 -207 -3z"/> <path d="M2356 4027 c-19 -14 -52 -156 -42 -182 5 -13 39 -15 230 -15 250 0 250 0 261 68 3 20 11 55 16 76 17 64 9 66 -236 66 -156 0 -216 -3 -229 -13z"/> <path d="M1545 1401 c-33 -14 -56 -47 -62 -90 -8 -55 1 -83 39 -120 27 -27 39 -31 82 -31 76 1 126 51 126 127 0 35 -6 49 -38 83 -34 35 -44 40 -83 39 -24 0 -53 -4 -64 -8z"/> <path d="M1289 1017 c-56 -26 -85 -83 -73 -144 8 -44 67 -103 103 -103 65 0 141 69 141 128 0 86 -97 154 -171 119z"/> <path d="M1823 1020 c-57 -23 -83 -81 -69 -155 8 -41 72 -95 113 -95 37 0 96 35 116 68 60 104 -48 227 -160 182z"/> <path d="M1534 602 c-66 -53 -70 -133 -9 -192 30 -29 42 -34 86 -34 48 -1 54 2 85 38 28 33 34 47 34 86 0 40 -5 52 -37 83 -32 33 -42 37 -87 37 -33 0 -58 -6 -72 -18z"/> <path d="M1480 281 l-25 -7 23 -8 c30 -10 114 2 107 15 -7 10 -68 10 -105 0z"/> <path d="M1164 245 c21 -16 126 -21 126 -6 0 11 -51 21 -104 21 -38 -1 -40 -2 -22 -15z"/> <path d="M1397 253 c-4 -3 -23 -9 -44 -12 -20 -3 -38 -11 -40 -17 -3 -9 89 -54 112 -54 6 0 10 20 10 45 0 34 -4 45 -16 45 -9 0 -19 -3 -22 -7z"/> <path d="M1466 161 c-6 -10 41 -21 90 -21 38 0 45 15 12 24 -34 9 -96 7 -102 -3z"/> </g> </svg> 